<svg id="R站" xmlns="http://www.w3.org/2000/svg" viewBox="0 0 107.59 32"><defs><style>.cls-1{fill:#999;}.cls-2{fill:#ccc;}.cls-3{fill:#e74c3c;}</style></defs><title>LogoR</title><path class="cls-1" d="M61,13.36H56.53v1.47c0,.71-.17,1.06-.71,1.25a6.73,6.73,0,0,1-2.24.22A5.8,5.8,0,0,0,53,15c.73,0,1.58,0,1.81,0s.3-.06.3-.21V13.36H50.75V12.1h4.37v-.71a8.65,8.65,0,0,0,1.3-.67H52.81V9.54H58l.28-.07.87.68a11.05,11.05,0,0,1-2.6,1.73v.22H61ZM52.19,10H50.9V7.45h1.76a9,9,0,0,0-.8-1.19L53,5.74a7,7,0,0,1,1.06,1.5l-.44.21h1.93A7.68,7.68,0,0,0,54.82,6L56,5.53a6.42,6.42,0,0,1,.91,1.65l-.68.26h1.49a12.27,12.27,0,0,0,1-1.73l1.42.42c-.31.45-.65.9-1,1.31h1.68V10H59.51V8.65H52.19Z" transform="translate(-11)"/><path class="cls-1" d="M69.66,12.53c-2.26.85-4.75,1.74-6.54,2.38l-.47-1.38C64.3,13,67,12.14,69.4,11.28ZM72,7c-.07,5.81-.17,7.75-.63,8.41a1.55,1.55,0,0,1-1.21.75,15.4,15.4,0,0,1-2.09,0,3.07,3.07,0,0,0-.45-1.3c.87.06,1.58.06,2,.06a.54.54,0,0,0,.49-.21c.39-.39.47-2.49.53-7.13H62.83V6.31H72ZM65,8.19c.88.64,2.23,1.58,2.87,2.17l-1,1a34.77,34.77,0,0,0-2.8-2.29Z" transform="translate(-11)"/><path class="cls-1" d="M81.06,12.15a5.44,5.44,0,0,1-.63,2,11.5,11.5,0,0,0,3.92,1,5.61,5.61,0,0,0-.81,1.22,10.53,10.53,0,0,1-3.92-1.2,5.9,5.9,0,0,1-2.35,1.23,7.51,7.51,0,0,0-.85-1.14,5.3,5.3,0,0,0,2.09-.88,6.62,6.62,0,0,1-1.41-1.71l1.11-.34a4.73,4.73,0,0,0,1.07,1.18,3.74,3.74,0,0,0,.42-1.31H77.14V8.8h2.64V8H76.9V6.94c-.21.44-.44.88-.69,1.32v8.11h-1.3V10.21A12.46,12.46,0,0,1,74,11.29a9,9,0,0,0-.72-1.4A12.19,12.19,0,0,0,76,5.61L77.29,6,77,6.76h2.8v-1h1.35v1h3V8h-3v.8h2.73v3.35Zm-1.29-1.1V9.92H78.36v1.14Zm1.35-1.14v1.14h1.42V9.92Z" transform="translate(-11)"/><path class="cls-1" d="M95.09,11.07a11.35,11.35,0,0,1-1.91,2.51c.31.88.67,1.41,1,1.41s.38-.55.44-1.9a3.49,3.49,0,0,0,1.12.78c-.22,2-.64,2.51-1.69,2.51-.84,0-1.48-.69-2-1.81A11.93,11.93,0,0,1,90,16a6,6,0,0,0-.91-1.1,11.67,11.67,0,0,0,2.56-1.62A21.18,21.18,0,0,1,91,10.18H88.71v1.31l1.77-.32.1,1.24-1.87.38v2c0,.75-.16,1.11-.62,1.33a4.93,4.93,0,0,1-2.07.26A5.52,5.52,0,0,0,85.54,15c.64,0,1.31,0,1.51,0s.28-.06.28-.24V13.07l-2.05.41-.33-1.38c.65-.1,1.48-.23,2.39-.39V10.18H85.16V8.88h2.17V7.57c-.62.1-1.25.18-1.84.25a5.17,5.17,0,0,0-.39-1.15,29.21,29.21,0,0,0,4.56-1l.92,1.16c-.57.17-1.21.32-1.87.46V8.88h2.2c-.09-1-.13-2.1-.14-3.14h1.43a28.39,28.39,0,0,0,.12,3.14h3.12v1.3h-3c.09.69.21,1.35.33,1.94a9.62,9.62,0,0,0,1.09-1.56Zm-.84-2.52a9.09,9.09,0,0,0-1.63-1.89l1-.7a9.91,9.91,0,0,1,1.7,1.82Z" transform="translate(-11)"/><path class="cls-1" d="M96.25,10.89a13.74,13.74,0,0,0,.56-3l1,.13a15.28,15.28,0,0,1-.52,3.22Zm3.42-.72a10.16,10.16,0,0,0-.52-1.55v7.72H97.8V5.63h1.35V7.79l.62-.26a12.79,12.79,0,0,1,.9,2.17ZM104.34,12a5.12,5.12,0,0,0,2.94,3.08,5.41,5.41,0,0,0-1,1.29,6,6,0,0,1-3-3.37,6.24,6.24,0,0,1-2.92,3.4,5.92,5.92,0,0,0-1-1.06A4.81,4.81,0,0,0,102.25,12H100v-1.3h2.47c0-.37,0-.71,0-1.06v-1h-2V7.37h2V5.63h1.38V7.37h2.49v3.36h.72V12Zm-.5-2.34c0,.34,0,.69,0,1H105V8.63h-1.16Z" transform="translate(-11)"/><path class="cls-1" d="M111.34,12.55a17.88,17.88,0,0,1-2.32,3.1,10.94,10.94,0,0,0-1.15-.85,10.55,10.55,0,0,0,2.15-2.7Zm2.87-1.11v3.27c0,.75-.15,1.11-.63,1.34a5.33,5.33,0,0,1-2.13.24,5,5,0,0,0-.46-1.39c.63,0,1.32,0,1.54,0s.28,0,.28-.23V11.44h-2.36a3.41,3.41,0,0,0-1.45.18,8.75,8.75,0,0,0-.45-1.25c.2-.08.31-.33.41-.75a18.23,18.23,0,0,0,.36-3.24A49.32,49.32,0,0,0,117,5.72l.69,1.23a42.28,42.28,0,0,1-7.07.67,21.35,21.35,0,0,1-.4,2.46h2.55v-2h1.41v2h3.92v1.38Zm2.28.68a22.86,22.86,0,0,1,2.1,2.93l-1.3.59a21.18,21.18,0,0,0-2-3Z" transform="translate(-11)"/><path class="cls-1" d="M57.18,22l-1.56,5.14h-1L54,24.86a15.78,15.78,0,0,1-.38-1.64h0a12.2,12.2,0,0,1-.4,1.65l-.7,2.27h-1L50,22h1.12l.57,2.46c.12.55.24,1.1.34,1.64h0c.1-.53.26-1.1.41-1.63L53.18,22h.89l.67,2.41c.16.6.3,1.15.4,1.69h0c.08-.53.21-1.08.35-1.68l.6-2.42Z" transform="translate(-11)"/><path class="cls-1" d="M64.63,22l-1.56,5.14h-1l-.66-2.27a15.78,15.78,0,0,1-.38-1.64h0a12.2,12.2,0,0,1-.4,1.65l-.7,2.27h-1L57.47,22h1.12l.57,2.46c.12.55.24,1.1.34,1.64h0c.1-.53.26-1.1.41-1.63L60.63,22h.89l.67,2.41c.16.6.3,1.15.4,1.69h0c.08-.53.21-1.08.35-1.68l.6-2.42Z" transform="translate(-11)"/><path class="cls-1" d="M72.09,22l-1.56,5.14h-1l-.66-2.27a15.66,15.66,0,0,1-.38-1.64h0a12.28,12.28,0,0,1-.4,1.65l-.7,2.27h-1L64.93,22H66l.57,2.46c.12.55.24,1.1.34,1.64h0c.1-.53.26-1.1.41-1.63L68.09,22H69l.67,2.41c.16.6.3,1.15.4,1.69h0c.08-.53.21-1.08.34-1.68L71,22Z" transform="translate(-11)"/><path class="cls-1" d="M72.76,26.5a.7.7,0,0,1,.7-.75.74.74,0,1,1-.7.75Z" transform="translate(-11)"/><path class="cls-1" d="M76.3,22.71a1.71,1.71,0,0,1,1.56-.83c1.17,0,2,1,2,2.6,0,1.87-1.09,2.75-2.15,2.75a1.63,1.63,0,0,1-1.52-.88h0l-.06.77h-.92c0-.34,0-.9,0-1.37V19.66h1.08v3.06Zm0,2.39a1.21,1.21,0,0,0,1.17,1.27c.83,0,1.29-.74,1.29-1.84s-.42-1.78-1.28-1.78a1.29,1.29,0,0,0-1.18,1.34Z" transform="translate(-11)"/><path class="cls-1" d="M81.11,21.06l1.07-.34V22h1.22v.81H82.18v2.6c0,.63.2.94.65.94a1.58,1.58,0,0,0,.48-.07l0,.83a2.39,2.39,0,0,1-.84.12,1.33,1.33,0,0,1-1-.39,1.94,1.94,0,0,1-.38-1.38V22.81h-.73V22h.73Z" transform="translate(-11)"/><path class="cls-1" d="M85.44,22.71A1.71,1.71,0,0,1,87,21.88c1.17,0,2,1,2,2.6,0,1.87-1.09,2.75-2.15,2.75a1.63,1.63,0,0,1-1.52-.88h0l-.06.77H84.3c0-.34,0-.9,0-1.37V19.66h1.08v3.06Zm0,2.39a1.21,1.21,0,0,0,1.17,1.27c.83,0,1.29-.74,1.29-1.84s-.42-1.78-1.28-1.78a1.29,1.29,0,0,0-1.18,1.34Z" transform="translate(-11)"/><path class="cls-1" d="M93.64,25.91a7,7,0,0,0,.07,1.22h-1l-.08-.6h0a1.74,1.74,0,0,1-1.44.7,1.45,1.45,0,0,1-1.51-1.5c0-1.28,1.11-1.91,2.87-1.91,0-.38,0-1.15-1-1.15a2.37,2.37,0,0,0-1.25.35L90,22.31a3.21,3.21,0,0,1,1.66-.43c1.51,0,1.93,1,1.93,2.09Zm-1.05-1.36c-.85,0-1.83.16-1.83,1.07a.73.73,0,0,0,.75.82,1,1,0,0,0,1.07-1Z" transform="translate(-11)"/><path class="cls-1" d="M95.21,21.06l1.07-.34V22H97.5v.81H96.28v2.6c0,.63.2.94.65.94a1.58,1.58,0,0,0,.48-.07l0,.83a2.39,2.39,0,0,1-.84.12,1.33,1.33,0,0,1-1-.39,1.94,1.94,0,0,1-.38-1.38V22.81h-.73V22h.73Z" transform="translate(-11)"/><path class="cls-1" d="M98.28,26.5a.7.7,0,0,1,.7-.75.74.74,0,1,1-.7.75Z" transform="translate(-11)"/><path class="cls-1" d="M104.17,27a3.33,3.33,0,0,1-1.32.26,2.38,2.38,0,0,1-2.45-2.62,2.56,2.56,0,0,1,2.66-2.73,2.75,2.75,0,0,1,1.15.23l-.21.83a2,2,0,0,0-.92-.21,1.63,1.63,0,0,0-1.57,1.83,1.59,1.59,0,0,0,1.56,1.8,2.35,2.35,0,0,0,1-.21Z" transform="translate(-11)"/><path class="cls-1" d="M109.57,24.52a2.42,2.42,0,0,1-2.41,2.71,2.37,2.37,0,0,1-2.35-2.64,2.43,2.43,0,0,1,2.42-2.71A2.36,2.36,0,0,1,109.57,24.52ZM107.2,22.7c-.92,0-1.28,1-1.28,1.87s.48,1.85,1.27,1.85,1.27-.85,1.27-1.87C108.46,23.7,108.11,22.7,107.2,22.7Z" transform="translate(-11)"/><path class="cls-1" d="M117.69,27.13h-1.06V24.2c0-.86-.28-1.43-.93-1.43a1.09,1.09,0,0,0-1,1.19v3.17h-1.06V24c0-.72-.27-1.27-.89-1.27a1.14,1.14,0,0,0-1,1.25v3.11h-1.06V23.44c0-.58,0-1,0-1.44h.93l.06.75h0a1.68,1.68,0,0,1,1.5-.87,1.4,1.4,0,0,1,1.36.94h0a1.77,1.77,0,0,1,1.58-.94c.76,0,1.6.52,1.6,2.14Z" transform="translate(-11)"/><rect class="cls-2" x="38.86" y="18.12" width="68.45" height="0.45"/><path class="cls-3" d="M32.17,0H11V25H21.88V17.78L30.74,32h11L32.68,19.24C46.89,19.24,46.15,0,32.17,0ZM29,14.71h-7.1V5.77H29a4.67,4.67,0,0,1,4.67,4.46A4.67,4.67,0,0,1,29,14.71Z" transform="translate(-11)"/></svg>